HIERARCHY
ROOT Hips
{
  OFFSET 5.72205e-005 65.662 3.42586
  CHANNELS 6 Xposition Yposition Zposition Zrotation Xrotation Yrotation
  JOINT Chest
  {
    OFFSET 0 8.7983 -4.7612
    CHANNELS 6 Xposition Yposition Zposition Zrotation Xrotation Yrotation
    JOINT Chest2
    {
      OFFSET 0 8.0291 0.4195
      CHANNELS 6 Xposition Yposition Zposition Zrotation Xrotation Yrotation
      JOINT Chest3
      {
        OFFSET 0 9.9351 -2.2114
        CHANNELS 6 Xposition Yposition Zposition Zrotation Xrotation Yrotation
        JOINT Neck
        {
          OFFSET 0 22.3885 -0.4656
          CHANNELS 6 Xposition Yposition Zposition Zrotation Xrotation Yrotation
          JOINT Head
          {
            OFFSET -0.0001 12.643 3.4389
            CHANNELS 6 Xposition Yposition Zposition Zrotation Xrotation Yrotation
            End Site
            {
              OFFSET 0.0001 17.6655 0.5274
            }
          }
        }
        JOINT LeftCollar
        {
          OFFSET 2.2603 21.606 7.4023
          CHANNELS 6 Xposition Yposition Zposition Zrotation Xrotation Yrotation
          JOINT LeftShoulder
          {
            OFFSET 13.5163 -1.1332 -5.0146
            CHANNELS 6 Xposition Yposition Zposition Zrotation Xrotation Yrotation
            JOINT LeftElbow
            {
              OFFSET -0.0995 -28.05 -0.2431
              CHANNELS 6 Xposition Yposition Zposition Zrotation Xrotation Yrotation
              JOINT LeftWrist
              {
                OFFSET 0.0679 -23.3996 -0.1402
                CHANNELS 6 Xposition Yposition Zposition Zrotation Xrotation Yrotation
                JOINT LeftFinger1
                {
                  OFFSET 0.7932 -9.069 2.5189
                  CHANNELS 6 Xposition Yposition Zposition Zrotation Xrotation Yrotation
                  JOINT LeftFinger11
                  {
                    OFFSET -0.8272 -3.3923 0.5977
                    CHANNELS 6 Xposition Yposition Zposition Zrotation Xrotation Yrotation
                    JOINT LeftFinger12
                    {
                      OFFSET -0.5649 -2.3158 0.4082
                      CHANNELS 6 Xposition Yposition Zposition Zrotation Xrotation Yrotation
                      End Site
                      {
                        OFFSET -0.4919 -1.6479 0.2673
                      }
                    }
                  }
                }
                JOINT LeftFinger2
                {
                  OFFSET 0.9159 -9.2044 0.2193
                  CHANNELS 6 Xposition Yposition Zposition Zrotation Xrotation Yrotation
                  JOINT LeftFinger21
                  {
                    OFFSET 0.0117 -4.1944 -0.0248
                    CHANNELS 6 Xposition Yposition Zposition Zrotation Xrotation Yrotation
                    JOINT LeftFinger22
                    {
                      OFFSET 0.0071 -2.3249 -0.0142
                      CHANNELS 6 Xposition Yposition Zposition Zrotation Xrotation Yrotation
                      End Site
                      {
                        OFFSET -0.1475 -2.0882 0.0028
                      }
                    }
                  }
                }
                JOINT LeftFinger3
                {
                  OFFSET 0.6113 -8.7231 -2.0637
                  CHANNELS 6 Xposition Yposition Zposition Zrotation Xrotation Yrotation
                  JOINT LeftFinger31
                  {
                    OFFSET -0.1927 -3.8059 -0.2383
                    CHANNELS 6 Xposition Yposition Zposition Zrotation Xrotation Yrotation
                    JOINT LeftFinger32
                    {
                      OFFSET -0.1091 -2.1688 -0.1362
                      CHANNELS 6 Xposition Yposition Zposition Zrotation Xrotation Yrotation
                      End Site
                      {
                        OFFSET -0.2358 -1.9176 -0.0906
                      }
                    }
                  }
                }
                JOINT LeftFinger4
                {
                  OFFSET -0.6151 -8.0947 -3.5641
                  CHANNELS 6 Xposition Yposition Zposition Zrotation Xrotation Yrotation
                  JOINT LeftFinger41
                  {
                    OFFSET -0.4882 -2.341 -0.6462
                    CHANNELS 6 Xposition Yposition Zposition Zrotation Xrotation Yrotation
                    JOINT LeftFinger42
                    {
                      OFFSET -0.3575 -1.7167 -0.4742
                      CHANNELS 6 Xposition Yposition Zposition Zrotation Xrotation Yrotation
                      End Site
                      {
                        OFFSET -0.4187 -1.5237 -0.3496
                      }
                    }
                  }
                }
                JOINT LeftFinger0
                {
                  OFFSET -1.42 -1.8761 1.4223
                  CHANNELS 6 Xposition Yposition Zposition Zrotation Xrotation Yrotation
                  JOINT LeftFinger01
                  {
                    OFFSET -1.1471 -3.4929 2.6334
                    CHANNELS 6 Xposition Yposition Zposition Zrotation Xrotation Yrotation
                    JOINT LeftFinger02
                    {
                      OFFSET -0.823 -2.3 1.6571
                      CHANNELS 6 Xposition Yposition Zposition Zrotation Xrotation Yrotation
                      End Site
                      {
                        OFFSET -0.5822 -1.6914 1.1582
                      }
                    }
                  }
                }
              }
            }
          }
        }
        JOINT RightCollar
        {
          OFFSET -2.2603 21.606 7.4023
          CHANNELS 6 Xposition Yposition Zposition Zrotation Xrotation Yrotation
          JOINT RightShoulder
          {
            OFFSET -13.5187 -1.1334 -5.0155
            CHANNELS 6 Xposition Yposition Zposition Zrotation Xrotation Yrotation
            JOINT RightElbow
            {
              OFFSET 0.0994 -28.0499 -0.2431
              CHANNELS 6 Xposition Yposition Zposition Zrotation Xrotation Yrotation
              JOINT RightWrist
              {
                OFFSET -0.0679 -23.3996 -0.1402
                CHANNELS 6 Xposition Yposition Zposition Zrotation Xrotation Yrotation
                JOINT RightFinger1
                {
                  OFFSET -0.7932 -9.0691 2.5189
                  CHANNELS 6 Xposition Yposition Zposition Zrotation Xrotation Yrotation
                  JOINT RightFinger11
                  {
                    OFFSET 0.8272 -3.3923 0.5977
                    CHANNELS 6 Xposition Yposition Zposition Zrotation Xrotation Yrotation
                    JOINT RightFinger12
                    {
                      OFFSET 0.565 -2.3158 0.4082
                      CHANNELS 6 Xposition Yposition Zposition Zrotation Xrotation Yrotation
                      End Site
                      {
                        OFFSET 0.4919 -1.6479 0.2673
                      }
                    }
                  }
                }
                JOINT RightFinger2
                {
                  OFFSET -0.916 -9.2044 0.2193
                  CHANNELS 6 Xposition Yposition Zposition Zrotation Xrotation Yrotation
                  JOINT RightFinger21
                  {
                    OFFSET -0.0117 -4.1944 -0.0248
                    CHANNELS 6 Xposition Yposition Zposition Zrotation Xrotation Yrotation
                    JOINT RightFinger22
                    {
                      OFFSET -0.0071 -2.3249 -0.0142
                      CHANNELS 6 Xposition Yposition Zposition Zrotation Xrotation Yrotation
                      End Site
                      {
                        OFFSET 0.1475 -2.0882 0.0028
                      }
                    }
                  }
                }
                JOINT RightFinger3
                {
                  OFFSET -0.6113 -8.7231 -2.0637
                  CHANNELS 6 Xposition Yposition Zposition Zrotation Xrotation Yrotation
                  JOINT RightFinger31
                  {
                    OFFSET 0.1927 -3.8059 -0.2383
                    CHANNELS 6 Xposition Yposition Zposition Zrotation Xrotation Yrotation
                    JOINT RightFinger32
                    {
                      OFFSET 0.1091 -2.1688 -0.1362
                      CHANNELS 6 Xposition Yposition Zposition Zrotation Xrotation Yrotation
                      End Site
                      {
                        OFFSET 0.2358 -1.9176 -0.0906
                      }
                    }
                  }
                }
                JOINT RightFinger4
                {
                  OFFSET 0.6151 -8.0947 -3.564
                  CHANNELS 6 Xposition Yposition Zposition Zrotation Xrotation Yrotation
                  JOINT RightFinger41
                  {
                    OFFSET 0.4882 -2.341 -0.6462
                    CHANNELS 6 Xposition Yposition Zposition Zrotation Xrotation Yrotation
                    JOINT RightFinger42
                    {
                      OFFSET 0.3574 -1.7166 -0.4742
                      CHANNELS 6 Xposition Yposition Zposition Zrotation Xrotation Yrotation
                      End Site
                      {
                        OFFSET 0.4187 -1.5237 -0.3496
                      }
                    }
                  }
                }
                JOINT RightFinger0
                {
                  OFFSET 1.4199 -1.8761 1.4221
                  CHANNELS 6 Xposition Yposition Zposition Zrotation Xrotation Yrotation
                  JOINT RightFinger01
                  {
                    OFFSET 1.1472 -3.4929 2.6336
                    CHANNELS 6 Xposition Yposition Zposition Zrotation Xrotation Yrotation
                    JOINT RightFinger02
                    {
                      OFFSET 0.8229 -2.3 1.6571
                      CHANNELS 6 Xposition Yposition Zposition Zrotation Xrotation Yrotation
                      End Site
                      {
                        OFFSET 0.5822 -1.6914 1.1582
                      }
                    }
                  }
                }
              }
            }
          }
        }
      }
    }
  }
  JOINT RightHip
  {
    OFFSET -9.412 3.9771 -0.7758
    CHANNELS 6 Xposition Yposition Zposition Zrotation Xrotation Yrotation
    JOINT RightKnee
    {
      OFFSET -0.7531 -40.938 0
      CHANNELS 6 Xposition Yposition Zposition Zrotation Xrotation Yrotation
      JOINT RightAnkle
      {
        OFFSET 0 -40.1986 0
        CHANNELS 6 Xposition Yposition Zposition Zrotation Xrotation Yrotation
        JOINT RightToe
        {
          OFFSET 0 -4.4182 9.239
          CHANNELS 6 Xposition Yposition Zposition Zrotation Xrotation Yrotation
          End Site
          {
            OFFSET 0 0 6.1981
          }
        }
      }
    }
  }
  JOINT LeftHip
  {
    OFFSET 9.4119 3.9773 -0.7758
    CHANNELS 6 Xposition Yposition Zposition Zrotation Xrotation Yrotation
    JOINT LeftKnee
    {
      OFFSET 0.7532 -40.9383 0
      CHANNELS 6 Xposition Yposition Zposition Zrotation Xrotation Yrotation
      JOINT LeftAnkle
      {
        OFFSET 0 -40.1986 0
        CHANNELS 6 Xposition Yposition Zposition Zrotation Xrotation Yrotation
        JOINT LeftToe
        {
          OFFSET 0 -4.4182 9.239
          CHANNELS 6 Xposition Yposition Zposition Zrotation Xrotation Yrotation
          End Site
          {
            OFFSET 0 0 6.1981
          }
        }
      }
    }
  }
}
MOTION
Frames:	4
Frame Time:	0.0333333
5.72205e-005 65.662 3.42586 0 0 -0 0 8.7983 -4.7612 0 0 -0 0 8.0291 0.4195 0 0 -0 0 9.9351 -2.2114 0 0 -0 0 22.3885 -0.4656 0 0 -0 -0.0001 12.643 3.4389 0 0 -0 2.2603 21.606 7.4023 0 0 -12.5014 13.5163 -1.1332 -5.0146 88.1196 14.2451 10.6914 -0.0995 -28.05 -0.2431 -0.00160068 -0.00239207 0.000740045 0.0679 -23.3996 -0.1402 -8.4365e-005 7.00714e-005 -9.52055e-007 0.7932 -9.069 2.5189 9.93923e-017 -1.98785e-016 -1.59028e-015 -0.8272 -3.3923 0.5977 9.93923e-017 -5.96354e-016 -1.59028e-015 -0.5649 -2.3158 0.4082 -9.93923e-017 -5.96354e-016 -1.59028e-015 0.9159 -9.2044 0.2193 9.93923e-017 -1.98785e-016 -1.59028e-015 0.0117 -4.1944 -0.0248 -0.0128176 0.00232552 8.52707e-005 0.0071 -2.3249 -0.0142 9.93923e-017 5.96354e-016 -0 0.6113 -8.7231 -2.0637 9.93923e-017 -1.98785e-016 -1.59028e-015 -0.1927 -3.8059 -0.2383 -0.0160551 0.00299681 0.000857156 -0.1091 -2.1688 -0.1362 -2.48481e-016 0 3.18055e-015 -0.6151 -8.0947 -3.5641 9.93923e-017 -1.98785e-016 -1.59028e-015 -0.4882 -2.341 -0.6462 -0.0125865 0.0031206 0.00282719 -0.3575 -1.7167 -0.4742 0 1.98785e-016 -0 -1.42 -1.8761 1.4223 9.93923e-017 -1.98785e-016 -1.59028e-015 -1.1471 -3.4929 2.6334 9.93923e-017 -5.96354e-016 -1.59028e-015 -0.823 -2.3 1.6571 -9.93923e-017 -5.96354e-016 -1.59028e-015 -2.2603 21.606 7.4023 -0.865644 0.16582 7.03859 -13.5187 -1.1334 -5.0155 -88.0329 10.2057 -10.5567 0.0994 -28.0499 -0.2431 0.0015593 -0.00248883 -0.000788628 -0.0679 -23.3996 -0.1402 7.87605e-005 4.10553e-005 1.24965e-005 -0.7932 -9.0691 2.5189 -3.97569e-016 -7.95139e-016 3.18055e-015 0.8272 -3.3923 0.5977 -1.98785e-016 -3.97569e-016 3.18055e-015 0.565 -2.3158 0.4082 -1.98785e-016 0 3.18055e-015 -0.916 -9.2044 0.2193 -3.97569e-016 -7.95139e-016 3.18055e-015 -0.0117 -4.1944 -0.0248 0.0129473 0.00231697 -8.70038e-005 -0.0071 -2.3249 -0.0142 9.93923e-017 -7.95139e-016 1.59028e-015 -0.6113 -8.7231 -2.0637 -3.97569e-016 -7.95139e-016 3.18055e-015 0.1927 -3.8059 -0.2383 0.0163314 0.00303369 -0.000872333 0.1091 -2.1688 -0.1362 3.97569e-016 7.95139e-016 -3.18055e-015 0.6151 -8.0947 -3.564 -3.97569e-016 -7.95139e-016 3.18055e-015 0.4882 -2.341 -0.6462 0.0145763 0.00367772 -0.00326275 0.3574 -1.7166 -0.4742 9.93923e-017 -3.97569e-016 -0 1.4199 -1.8761 1.4221 -3.97569e-016 -7.95139e-016 3.18055e-015 1.1472 -3.4929 2.6336 -1.98785e-016 -3.97569e-016 3.18055e-015 0.8229 -2.3 1.6571 -1.98785e-016 0 3.18055e-015 -9.412 3.9771 -0.7758 3.42482 1.32465 -0.0626183 -0.7531 -40.938 0 0.000117508 0.717283 0.000978199 0 -40.1986 0 -3.4257 -2.04197 -0.0604716 8.88178e-016 -4.4182 9.239 6.47761e-025 0 -0 9.4119 3.9773 -0.7758 -3.42483 1.34017 0.0627307 0.7532 -40.9383 -2.22045e-016 -0.000193936 0.682302 -0.0013703 -8.88179e-016 -40.1986 0 3.42574 -2.02253 0.0595886 -8.88178e-016 -4.4182 9.239 -8.45714e-024 0 -7.40531e-025 
-1.02983 0.889488 9.10503 180 -78.9819 180 2.22045e-016 8.7983 -4.7612 0.120305 1.02536 -0.271651 2.22045e-016 8.0291 0.4195 0.24553 2.05013 -0.545583 -2.22045e-016 9.9351 -2.2114 0.24553 2.05013 -0.545583 0 22.3885 -0.4656 12 -0.978703 0.206601 -0.0001 12.643 3.4389 10.9996 -2.62526e-006 -3.28411e-007 2.2603 21.606 7.4023 -1.69041 -4.24041 -14.5292 13.5163 -1.1332 -5.0146 10.6874 -10.3911 20.0104 -0.0995 -28.05 -0.2431 -15.8235 -38.2579 -15.1296 0.0679 -23.3996 -0.1402 -43.3045 19.4304 -2.21705 0.7932 -9.069 2.5189 1.89672e-006 -3.25799e-006 4.55283e-006 -0.8272 -3.3923 0.5977 -9.85876e-006 7.28646e-006 -7.31724e-006 -0.5649 -2.3158 0.4082 3.18055e-015 3.18055e-015 -1.59028e-015 0.9159 -9.2044 0.2193 1.89672e-006 -3.25799e-006 4.55283e-006 0.0117 -4.1944 -0.0248 -0.0128181 0.00232431 8.21397e-005 0.0071 -2.3249 -0.0142 -1.59028e-015 -3.18055e-015 -0 0.6113 -8.7231 -2.0637 1.89672e-006 -3.25799e-006 4.55283e-006 -0.1927 -3.8059 -0.2383 -0.0160355 0.00299206 0.000849902 -0.1091 -2.1688 -0.1362 -1.59028e-015 3.18055e-015 -0 -0.6151 -8.0947 -3.5641 1.89672e-006 -3.25799e-006 4.55283e-006 -0.4882 -2.341 -0.6462 -0.0125755 0.00312212 0.0028187 -0.3575 -1.7167 -0.4742 1.59028e-015 3.18055e-015 -1.59028e-015 -1.42 -1.8761 1.4223 1.89672e-006 -3.25799e-006 4.55283e-006 -1.1471 -3.4929 2.6334 -9.85876e-006 7.28646e-006 -7.31724e-006 -0.823 -2.3 1.6571 3.18055e-015 3.18055e-015 -1.59028e-015 -2.2603 21.606 7.4023 -16.0555 -6.02904 21.2215 -13.5187 -1.1334 -5.0155 -23.3528 -17.888 -19.5123 0.0994 -28.0499 -0.2431 67.2099 -58.1559 57.007 -0.0679 -23.3996 -0.1402 63.5309 -9.63831 -2.84799 -0.7932 -9.0691 2.5189 2.38542e-015 3.18055e-015 6.36111e-015 0.8272 -3.3923 0.5977 -7.95139e-016 3.18055e-015 7.95139e-015 0.565 -2.3158 0.4082 1.59028e-015 -6.36111e-015 1.59028e-015 -0.916 -9.2044 0.2193 2.38542e-015 3.18055e-015 6.36111e-015 -0.0117 -4.1944 -0.0248 0.0129399 0.00231642 -9.09345e-005 -0.0071 -2.3249 -0.0142 -1.35174e-014 2.54444e-014 -1.59028e-015 -0.6113 -8.7231 -2.0637 2.38542e-015 3.18055e-015 6.36111e-015 0.1927 -3.8059 -0.2383 0.0163204 0.00303311 -0.000877122 0.1091 -2.1688 -0.1362 -7.95139e-015 0 -1.59028e-015 0.6151 -8.0947 -3.564 2.38542e-015 3.18055e-015 6.36111e-015 0.4882 -2.341 -0.6462 0.0145653 0.0036799 -0.00326292 0.3574 -1.7166 -0.4742 2.38542e-015 0 -3.18055e-015 1.4199 -1.8761 1.4221 2.38542e-015 3.18055e-015 6.36111e-015 1.1472 -3.4929 2.6336 -7.95139e-016 3.18055e-015 7.95139e-015 0.8229 -2.3 1.6571 1.59028e-015 -6.36111e-015 1.59028e-015 -9.412 3.9771 -0.7758 -12.4183 -17.7927 -9.99267 -0.7531 -40.938 -1.77636e-015 73.3869 77.0692 -81.4342 -1.77636e-015 -40.1986 0 2.66295 27.7211 -3.42897 1.77636e-015 -4.4182 9.239 -4.37326e-015 0 -0 9.4119 3.9773 -0.7758 9.13215 -18.9577 12.0291 0.7532 -40.9383 5.77316e-015 -99.8214 77.8764 107.353 8.88179e-016 -40.1986 0 -2.16416 21.4091 6.6413 8.88179e-016 -4.4182 9.239 -3.11079e-006 7.26104e-007 -6.80746e-007 
-1.03026 1.03532 9.25047 -180 -79.6484 -180 0 8.7983 -4.7612 0.122513 0.926915 -0.275206 2.22045e-016 8.0291 0.4195 0.249528 1.85325 -0.552503 2.22045e-016 9.9351 -2.2114 0.249529 1.85325 -0.552505 2.22045e-016 22.3885 -0.4656 12.4996 -0.976893 0.215075 -0.0001 12.643 3.4389 10.9997 -0.272754 0.0529081 2.2603 21.606 7.4023 -1.42093 -3.80077 -14.1771 13.5163 -1.1332 -5.0146 10.5356 -10.1295 19.9325 -0.0995 -28.05 -0.2431 -16.7225 -39.4722 -15.8064 0.0679 -23.3996 -0.1402 -43.3156 19.7285 -1.88332 0.7932 -9.069 2.5189 9.54166e-015 -6.36111e-015 3.18055e-015 -0.8272 -3.3923 0.5977 1.59028e-015 0 -0 -0.5649 -2.3158 0.4082 1.59028e-015 3.18055e-015 -1.59028e-015 0.9159 -9.2044 0.2193 9.54166e-015 -6.36111e-015 3.18055e-015 0.0117 -4.1944 -0.0248 -0.0128364 0.00232507 7.98587e-005 0.0071 -2.3249 -0.0142 -3.18055e-015 3.18055e-015 -3.18055e-015 0.6113 -8.7231 -2.0637 9.54166e-015 -6.36111e-015 3.18055e-015 -0.1927 -3.8059 -0.2383 -0.016032 0.00299201 0.000854399 -0.1091 -2.1688 -0.1362 2.33641e-006 -6.75118e-007 7.4498e-007 -0.6151 -8.0947 -3.5641 9.54166e-015 -6.36111e-015 3.18055e-015 -0.4882 -2.341 -0.6462 -0.0126031 0.00312467 0.00283908 -0.3575 -1.7167 -0.4742 -7.95139e-015 6.36111e-015 -0 -1.42 -1.8761 1.4223 9.54166e-015 -6.36111e-015 3.18055e-015 -1.1471 -3.4929 2.6334 1.59028e-015 0 -0 -0.823 -2.3 1.6571 1.59028e-015 3.18055e-015 -1.59028e-015 -2.2603 21.606 7.4023 -16.6074 -6.89008 20.475 -13.5187 -1.1334 -5.0155 -22.7313 -17.8439 -19.2111 0.0994 -28.0499 -0.2431 68.0747 -57.9712 57.7688 -0.0679 -23.3996 -0.1402 62.8548 -9.52818 -3.73183 -0.7932 -9.0691 2.5189 -5.19145e-007 4.09202e-007 1.57604e-006 0.8272 -3.3923 0.5977 5.19145e-007 -4.09202e-007 -1.57604e-006 0.565 -2.3158 0.4082 -5.19145e-007 4.09202e-007 1.57604e-006 -0.916 -9.2044 0.2193 -5.19145e-007 4.09202e-007 1.57604e-006 -0.0117 -4.1944 -0.0248 0.0129345 0.00231339 -8.86507e-005 -0.0071 -2.3249 -0.0142 -3.50311e-007 -1.21555e-006 2.47266e-006 -0.6113 -8.7231 -2.0637 -5.19145e-007 4.09202e-007 1.57604e-006 0.1927 -3.8059 -0.2383 0.0163191 0.00302685 -0.000876741 0.1091 -2.1688 -0.1362 1.69172e-007 -2.11195e-006 8.96596e-007 0.6151 -8.0947 -3.564 -5.19145e-007 4.09202e-007 1.57604e-006 0.4882 -2.341 -0.6462 0.0145821 0.00367553 -0.00326852 0.3574 -1.7166 -0.4742 -2.59674e-007 1.50484e-006 7.88017e-007 1.4199 -1.8761 1.4221 -5.19145e-007 4.09202e-007 1.57604e-006 1.1472 -3.4929 2.6336 5.19145e-007 -4.09202e-007 -1.57604e-006 0.8229 -2.3 1.6571 -5.19145e-007 4.09202e-007 1.57604e-006 -9.412 3.9771 -0.7758 -12.2869 -18.4072 -9.81958 -0.7531 -40.938 3.55271e-015 73.1861 77.056 -81.2233 8.88179e-016 -40.1986 -7.10543e-015 3.0468 27.4775 -3.61633 0 -4.4182 9.239 6.57923e-007 4.8469e-007 7.87075e-008 9.4119 3.9773 -0.7758 9.10685 -19.503 12.0145 0.7532 -40.9383 5.32907e-015 -99.6187 77.8835 107.143 3.55271e-015 -40.1986 7.10543e-015 -2.30515 21.1596 6.63994 8.88178e-016 -4.4182 9.239 2.5842e-015 -1.59028e-015 1.59028e-015 
-1.03065 1.18047 9.39506 -180 -80.3153 -180 -2.22045e-016 8.7983 -4.7612 0.124835 0.82795 -0.278737 0 8.0291 0.4195 0.253736 1.65527 -0.559361 0 9.9351 -2.2114 0.253736 1.65527 -0.559361 2.22045e-016 22.3885 -0.4656 12.9993 -0.975151 0.223632 -0.0001 12.643 3.4389 11.0001 -0.545523 0.105822 2.2603 21.606 7.4023 -1.1542 -3.35944 -13.827 13.5163 -1.1332 -5.0146 10.3844 -9.86753 19.8553 -0.0995 -28.05 -0.2431 -17.6588 -40.681 -16.5221 0.0679 -23.3996 -0.1402 -43.3285 20.0265 -1.54878 0.7932 -9.069 2.5189 4.77083e-015 6.36111e-015 -0 -0.8272 -3.3923 0.5977 -4.77083e-015 0 -3.18055e-015 -0.5649 -2.3158 0.4082 0 0 -6.36111e-015 0.9159 -9.2044 0.2193 4.77083e-015 6.36111e-015 -0 0.0117 -4.1944 -0.0248 -0.0128003 0.00232805 8.37884e-005 0.0071 -2.3249 -0.0142 6.80033e-006 -1.74482e-006 4.57969e-006 0.6113 -8.7231 -2.0637 4.77083e-015 6.36111e-015 -0 -0.1927 -3.8059 -0.2383 -0.0160267 0.00298072 0.000857185 -0.1091 -2.1688 -0.1362 2.12171e-006 1.29986e-006 -1.27931e-006 -0.6151 -8.0947 -3.5641 4.77083e-015 6.36111e-015 -0 -0.4882 -2.341 -0.6462 -0.0126034 0.00312394 0.00282901 -0.3575 -1.7167 -0.4742 -6.36111e-015 -1.27222e-014 -1.11319e-014 -1.42 -1.8761 1.4223 4.77083e-015 6.36111e-015 -0 -1.1471 -3.4929 2.6334 -4.77083e-015 0 -3.18055e-015 -0.823 -2.3 1.6571 0 0 -6.36111e-015 -2.2603 21.606 7.4023 -17.1727 -7.74565 19.7174 -13.5187 -1.1334 -5.0155 -22.1101 -17.7966 -18.9105 0.0994 -28.0499 -0.2431 68.9308 -57.7804 58.5215 -0.0679 -23.3996 -0.1402 62.18 -9.40767 -4.61515 -0.7932 -9.0691 2.5189 5.1911e-007 -1.95275e-006 -1.57623e-006 0.8272 -3.3923 0.5977 2.59555e-007 -3.18055e-015 -7.88113e-007 0.565 -2.3158 0.4082 -7.95139e-016 -6.36111e-015 3.18055e-015 -0.916 -9.2044 0.2193 5.1911e-007 -1.95275e-006 -1.57623e-006 -0.0117 -4.1944 -0.0248 0.0129506 0.00231975 -7.98412e-005 -0.0071 -2.3249 -0.0142 -2.59632e-007 -1.52749e-006 7.88103e-007 -0.6113 -8.7231 -2.0637 5.1911e-007 -1.95275e-006 -1.57623e-006 0.1927 -3.8059 -0.2383 0.0163054 0.00304004 -0.000877282 0.1091 -2.1688 -0.1362 7.95139e-016 2.8625e-014 1.59028e-015 0.6151 -8.0947 -3.564 5.1911e-007 -1.95275e-006 -1.57623e-006 0.4882 -2.341 -0.6462 0.0145562 0.00367148 -0.00325638 0.3574 -1.7166 -0.4742 8.82781e-032 -3.18055e-015 1.59028e-015 1.4199 -1.8761 1.4221 5.1911e-007 -1.95275e-006 -1.57623e-006 1.1472 -3.4929 2.6336 2.59555e-007 -3.18055e-015 -7.88113e-007 0.8229 -2.3 1.6571 -7.95139e-016 -6.36111e-015 3.18055e-015 -9.412 3.9771 -0.7758 -12.153 -19.0218 -9.64406 -0.7531 -40.938 2.66454e-015 72.9868 77.0428 -81.014 8.88178e-016 -40.1986 0 3.4287 27.2325 -3.80142 0 -4.4182 9.239 7.95139e-016 -1.59028e-015 -1.59028e-015 9.4119 3.9773 -0.7758 9.08124 -20.0489 11.9995 0.7532 -40.9383 -3.10862e-015 -99.4169 77.8904 106.935 1.77636e-015 -40.1986 -7.10543e-015 -2.44585 20.91 6.63795 0 -4.4182 9.239 -6.22576e-006 -1.12922e-006 -1.32076e-006 
